# AST/ASF file generated using VICON BodyLanguage
# -----------------------------------------------
:version 1.10
:name VICON
:units
  mass 1.0
  length 0.45
  angle deg
:documentation
   .ast/.asf automatically generated from VICON data using
   VICON BodyBuilder and BodyLanguage model FoxedUp or BRILLIANT.MOD
:root
   order TX TY TZ RX RY RZ
   axis XYZ
   position 0 0 0  
   orientation 0 -0 0 
:bonedata
  begin
     id 1 
     name lhipjoint
     direction 0.500677 -0.737119 0.453848 
     length 2.34727 
     axis 0 -0 0  XYZ
  end
  begin
     id 2 
     name lfemur
     direction 0.34202 -0.939693 0  
     length 7.53653  
     axis 0 -0 20  XYZ
    dof rx ry rz
    limits (-160.0 20.0)
           (-70.0 70.0)
           (-60.0 70.0)
  end
  begin
     id 3 
     name ltibia
     direction 0.34202 -0.939693 0   
     length 6.85572   
     axis 0 -0 20   XYZ
    dof rx
    limits (-10.0 170.0)
  end
  begin
     id 4 
     name lfoot
     direction 0.155313 -0.426718 0.890949   
     length 2.18324   
     axis -90 -1.13533e-015 20   XYZ
    dof rx rz
    limits (-45.0 90.0)
           (-70.0 20.0)
  end
  begin
     id 5 
     name ltoes
     direction 1.53474e-011 -4.21647e-011 1   
     length 1.06748   
     axis -90 -1.13533e-015 20   XYZ
    dof rx
    limits (-90.0 20.0)
  end
  begin
     id 6 
     name rhipjoint
     direction -0.632471 -0.659587 0.406111   
     length 2.62319  
     axis 0 -0 0  XYZ 
  end
  begin
     id 7 
     name rfemur
     direction -0.34202 -0.939693 0   
     length 7.21735   
     axis 0 -0 -20   XYZ
    dof rx ry rz
    limits (-160.0 20.0)
           (-70.0 70.0)
           (-70.0 60.0)
  end
  begin
     id 8 
     name rtibia
     direction -0.34202 -0.939693 0   
     length 7.02558   
     axis 0 -0 -20   XYZ
    dof rx
    limits (-10.0 170.0)
 end
 begin
     id 9 
     name rfoot
     direction -0.16057 -0.441164 0.882945   
     length 2.10014  
     axis -90 1.13533e-015 -20   XYZ
    dof rx rz
    limits (-45.0 90.0)
           (-20.0 70.0)
  end
  begin
     id 10 
     name rtoes
     direction -1.53553e-011 -4.2192e-011 1   
     length 1.02554   
     axis -90 1.13533e-015 -20   XYZ
    dof rx
    limits (-90.0 20.0)
  end
  begin
     id 11 
     name lowerback
     direction 0.0401429 0.998861 -0.0258085   
     length 1.80848   
     axis 0 -0 0   XYZ
    dof rx ry rz
    limits (-20.0 45.0)
           (-30.0 30.0)
           (-30.0 30.0)
  end
  begin
     id 12 
     name upperback
     direction -0.0130978 0.999914 -0.000352645   
     length 1.8116   
     axis 0 -0 0   XYZ
    dof rx ry rz
    limits (-20.0 45.0)
           (-30.0 30.0)
           (-30.0 30.0)
  end
  begin
     id 13 
     name thorax
     direction -0.0300198 0.999453 0.0138573   
     length 1.81778   
     axis 0 -0 0   XYZ
    dof rx ry rz
    limits (-20.0 45.0)
           (-30.0 30.0)
           (-30.0 30.0)
  end
  begin
     id 14 
     name lowerneck
     direction -0.0401726 0.999191 -0.00173647   
     length 2.10594   
     axis 0 -0 0   XYZ
    dof rx ry rz
    limits (-20.0 45.0)
           (-30.0 30.0)
           (-30.0 30.0)
  end
  begin
     id 15 
     name upperneck
     direction 0.0119835 0.998501 0.0534085   
     length 2.07325   
     axis 0 -0 0   XYZ
    dof rx ry rz
    limits (-20.0 45.0)
           (-30.0 30.0)
           (-30.0 30.0)
  end
  begin
     id 16
     name head
     direction 0.00628309 0.999826 0.0175921  
     length 2.15096  
     axis 0 -0 0   XYZ
    dof rx ry rz
    limits (-20.0 45.0)
           (-30.0 30.0)
           (-30.0 30.0)
  end
  begin
     id 17 
     name lclavicle
     direction 0.895501 0.429681 -0.115981  
     length 4.18092  
     axis 0 -0 0   XYZ
    dof ry rz
    limits (-20.0 10.0)
           (0.0 20.0)
  end
  begin
     id 18 
     name lhumerus
     direction 1 -4.48961e-011 -3.38433e-028   
     length 5.77237   
     axis 180 -30 -90   XYZ
    dof rx ry rz
    limits (-60.0 90.0)
           (-90.0 90.0)
           (-90.0 90.0)
  end
  begin
     id 19
     name lradius
     direction 1 -4.4901e-011 1.11983e-026   
     length 2.91878   
     axis 180 -30 -90   XYZ
    dof rx
    limits (-10.0 170.0)
  end
  begin
     id 20
     name lwrist
     direction 1 -4.48934e-011 1.88176e-026   
     length 1.45939   
     axis -1.23311e-014 90 90   XYZ
    dof ry
    limits (-180.0 0.0)
 end
  begin
     id 21 
     name lhand
     direction 1 -4.4895e-011 3.76352e-026   
     length 1.06566   
     axis -2.40147e-014 90 90   XYZ
    dof rx rz
    limits (-90.0 90.0)
           (-45.0 45.0)
  end
  begin
     id 22 
     name lfingers
     direction 1 -4.49005e-011 7.52705e-026   
     length 0.859162   
     axis -4.80295e-014 90 90   XYZ
    dof rx
    limits (0.0 90.0)
  end
  begin
     id 23
     name lthumb
     direction 0.707107 -6.34885e-011 0.707107   
     length 1.23359   
     axis -90 45 -9.86935e-015   XYZ
    dof rx rz
    limits (-45.0 45.0)
           (-45.0 45.0)
  end
  begin
     id 24 
     name rclavicle
     direction -0.91006 0.40451 -0.0903492   
     length 4.23293  
     axis 0 -0 0   XYZ 
    dof ry rz
    limits (-10.0 20.0)
           (-20.0 0.0)
  end
  begin
     id 25 
     name rhumerus
     direction -1 -4.4897e-011 1.7415e-027  
     length 5.49854   
     axis 180 30 90   XYZ
    dof rx ry rz
    limits (-90.0 60.0)
           (-90.0 90.0)
           (-90.0 90.0)
  end
  begin
     id 26 
     name rradius
     direction -1 -4.48963e-011 1.21259e-026   
     length 3.1186   
     axis 180 30 90   XYZ
    dof rx
    limits (-10.0 170.0)
  end
  begin
     id 27 
     name rwrist
     direction -1 -4.48967e-011 1.88176e-026   
     length 1.5593   
     axis -1.23311e-014 -90 -90   XYZ
    dof ry
    limits (-180.0 0.0)
  end
  begin
     id 28
     name rhand
     direction -1 -4.4895e-011 3.76352e-026   
     length 0.71207   
     axis -2.40147e-014 -90 -90   XYZ
    dof rx rz
    limits (-90.0 90.0)
           (-45.0 45.0)
  end
  begin
     id 29
     name rfingers
     direction -1 -4.49005e-011 7.52705e-026   
     length 0.574089   
     axis -4.80295e-014 -90 -90   XYZ
    dof rx
    limits (0.0 90.0)
  end
  begin
     id 30
     name rthumb
     direction -0.707107 -6.34982e-011 0.707107   
     length 0.824281   
     axis -90 -45 9.86935e-015   XYZ
    dof rx rz
    limits (-45.0 45.0)
           (-45.0 45.0)
  end
:hierarchy
  begin
    root lhipjoint rhipjoint lowerback
    lhipjoint lfemur
    lfemur ltibia
    ltibia lfoot
    lfoot ltoes
    rhipjoint rfemur
    rfemur rtibia
    rtibia rfoot
    rfoot rtoes
    lowerback upperback
    upperback thorax
    thorax lowerneck lclavicle rclavicle
    lowerneck upperneck
    upperneck head
    lclavicle lhumerus
    lhumerus lradius
    lradius lwrist
    lwrist lhand lthumb
    lhand lfingers
    rclavicle rhumerus
    rhumerus rradius
    rradius rwrist
    rwrist rhand rthumb
    rhand rfingers
  end

#!OML:ASF C:\ViconDB\ViconDB\414\Spring2016\042216\male.ASF
:FULLY-SPECIFIED
:DEGREES
94
root -32.1615 17.3101 13.3029 -149.702 80.0839 -156.688
lowerback -1.77192 -3.12197 5.01403
upperback 1.0638 -4.27875 -0.96471
thorax 1.64868 -2.07178 -3.91812
lowerneck -1.40689 2.56689 -2.84047
upperneck -3.81063 3.68937 5.9111
head -1.13021 1.85275 2.33152
rclavicle 6.19214e-014 -7.95139e-016
rhumerus -28.6891 -1.03196 -93.3199
rradius 35.4862
rwrist 24.2792
rhand 14.2515 -20.0344
rfingers 7.12502
rthumb 39.1466 -45.5123
lclavicle 6.19214e-014 -7.95139e-016
lhumerus -32.788 11.7452 86.745
lradius 33.6527
lwrist -12.4737
lhand -7.52675 13.4438
lfingers 7.12502
lthumb 18.3641 42.597
rfemur -30.4035 2.80953 22.093
rtibia 35.6006
rfoot -15.1717 -12.0493
rtoes -15.3876
lfemur -1.26767 -1.81884 -18.7682
ltibia 12.9979
lfoot -27.7011 11.8433
ltoes -13.1827
95
root -32.0802 17.3145 13.2889 -149.746 80.0094 -156.814
lowerback -1.7376 -3.21923 5.08247
upperback 1.05419 -4.40802 -0.979917
thorax 1.59997 -2.1372 -3.97114
lowerneck -1.31304 2.5463 -3.03847
upperneck -3.88663 3.68049 6.27279
head -1.18413 1.84676 2.48669
rclavicle 9.0447e-015 -1.59028e-014
rhumerus -28.8358 -1.50265 -93.1184
rradius 35.3066
rwrist 24.4587
rhand 14.3107 -19.5688
rfingers 7.12502
rthumb 39.2024 -45.0305
lclavicle 9.0447e-015 -1.59028e-014
lhumerus -32.7967 10.9283 87.1084
lradius 34.4973
lwrist -11.4394
lhand -7.42479 13.747
lfingers 7.12502
lthumb 18.4622 42.8909
rfemur -31.1031 2.81031 22.1779
rtibia 34.6183
rfoot -14.3697 -11.6164
rtoes -15.2918
lfemur -0.613568 -2.52839 -18.8423
ltibia 12.1068
lfoot -27.2893 12.5781
ltoes -13.747
96
root -32.0085 17.3087 13.2863 -149.125 79.8904 -156.265
lowerback -1.46777 -3.27707 5.11257
upperback 0.989338 -4.47065 -0.919337
thorax 1.37768 -2.17637 -3.90547
lowerneck -1.20476 2.4872 -2.94321
upperneck -3.99992 3.60894 6.32728
head -1.2346 1.80694 2.48676
rclavicle 8.74653e-015 9.54166e-015
rhumerus -29.0564 -1.86274 -92.8944
rradius 35.2169
rwrist 24.2031
rhand 14.4157 -19.7474
rfingers 7.12502
rthumb 39.3013 -45.1804
lclavicle 8.74653e-015 9.54166e-015
lhumerus -32.8023 10.2497 87.4595
lradius 35.3246
lwrist -10.7061
lhand -6.97023 13.8143
lfingers 7.12502
lthumb 18.8995 42.9161
rfemur -31.7911 3.45501 22.2607
rtibia 33.5242
rfoot -13.324 -11.7208
rtoes -14.5217
lfemur -0.0225215 -3.5378 -18.7608
ltibia 11.315
lfoot -26.9602 13.5265
ltoes -14.463
97
root -31.9233 17.3036 13.2797 -148.505 79.8597 -155.853
lowerback -1.47537 -3.31582 5.06377
upperback 0.91397 -4.52177 -0.795367
thorax 1.31246 -2.20632 -3.74858
lowerneck -0.991457 2.39303 -2.873
upperneck -4.22418 3.48591 6.20708
head -1.3325 1.73962 2.43282
rclavicle -4.46272e-014 -2.38542e-015
rhumerus -29.3137 -2.01802 -92.5792
rradius 35.0565
rwrist 24.3464
rhand 14.2675 -19.6575
rfingers 7.12502
rthumb 39.1617 -45.131
lclavicle -4.46272e-014 -2.38542e-015
lhumerus -32.7795 9.66452 87.9114
lradius 36.4181
lwrist -9.14029
lhand -6.16561 13.8977
lfingers 7.12502
lthumb 19.6732 42.9222
rfemur -32.6319 3.85788 22.2788
rtibia 32.4735
rfoot -12.2218 -11.5136
rtoes -13.8152
lfemur 0.534834 -4.06167 -18.7288
ltibia 10.346
lfoot -26.3817 14.1659
ltoes -14.2473
98
root -31.8314 17.2982 13.2701 -146.753 79.8141 -154.199
lowerback -1.48784 -3.33133 5.40905
upperback 0.885268 -4.5501 -0.79783
thorax 1.26077 -2.21933 -3.94286
lowerneck -0.851767 2.36598 -2.81267
upperneck -4.32973 3.46645 6.44201
head -1.39437 1.72428 2.49901
rclavicle 5.36719e-014 -2.3059e-014
rhumerus -29.532 -2.554 -92.4954
rradius 34.71
rwrist 24.9031
rhand 14.1516 -19.5525
rfingers 7.12502
rthumb 39.0524 -45.0575
lclavicle 5.36719e-014 -2.3059e-014
lhumerus -32.7748 8.97608 88.0852
lradius 37.3282
lwrist -8.08415
lhand -6.2276 13.7209
lfingers 7.12502
lthumb 19.6136 42.7515
rfemur -33.2823 4.20589 22.5819
rtibia 31.3113
rfoot -11.1299 -11.1252
rtoes -13.265
lfemur 1.16921 -3.84974 -18.5001
ltibia 9.57223
lfoot -26.2681 14.0938
ltoes -14.456
99
root -31.7439 17.294 13.2618 -147.406 79.9675 -154.962
lowerback -1.3811 -3.33219 5.17595
upperback 0.829936 -4.53864 -0.830535
thorax 1.15994 -2.21995 -3.83734
lowerneck -0.705229 2.26915 -2.77789
upperneck -4.42427 3.344 6.51846
head -1.44524 1.65843 2.51854
rclavicle -4.78077e-014 -4.77083e-015
rhumerus -29.7992 -2.89991 -92.1812
rradius 34.4808
rwrist 25.0007
rhand 14.1561 -19.6254
rfingers 7.12502
rthumb 39.0567 -45.1292
lclavicle -4.78077e-014 -4.77083e-015
lhumerus -32.7363 8.34167 88.4477
lradius 38.1872
lwrist -7.2692
lhand -6.31315 13.3182
lfingers 7.12502
lthumb 19.5313 42.3572
rfemur -33.9245 4.49812 22.3107
rtibia 30.127
rfoot -10.2334 -10.7203
rtoes -11.8504
lfemur 1.78454 -3.70019 -18.765
ltibia 8.77273
lfoot -26.1695 13.954
ltoes -14.8886
100
root -31.6435 17.2869 13.248 -146.898 79.8566 -154.493
lowerback -1.37387 -3.35775 5.28686
upperback 0.819561 -4.5754 -0.721945
thorax 1.14179 -2.23825 -3.78649
lowerneck -0.738429 2.22857 -2.96754
upperneck -4.32699 3.29171 6.71259
head -1.4145 1.63466 2.61948
rclavicle 3.81667e-014 -1.59028e-014
rhumerus -30.1399 -3.39295 -91.7104
rradius 34.2137
rwrist 25.6931
rhand 14.2051 -19.4087
rfingers 7.12502
rthumb 39.1029 -44.8992
lclavicle 3.81667e-014 -1.59028e-014
lhumerus -32.6739 7.61216 88.9997
lradius 39.3548
lwrist -6.28189
lhand -6.6842 13.6095
lfingers 7.12502
lthumb 19.1745 42.6842
rfemur -34.393 4.60597 22.4279
rtibia 28.9342
rfoot -9.23938 -10.2709
rtoes -11.3113
lfemur 2.56655 -3.65377 -18.6524
ltibia 7.81021
lfoot -25.9582 13.8013
ltoes -15.0134
101
root -31.5427 17.2789 13.2336 -145.556 79.7148 -153.186
lowerback -1.41777 -3.3218 5.70171
upperback 0.858948 -4.53942 -0.719631
thorax 1.17978 -2.21444 -4.019
lowerneck -0.757048 2.12004 -2.9414
upperneck -4.32109 3.15676 6.90187
head -1.40602 1.56624 2.68032
rclavicle 2.47487e-014 -6.36111e-015
rhumerus -30.4023 -3.70747 -91.5453
rradius 33.9894
rwrist 25.981
rhand 14.2161 -19.7697
rfingers 7.12502
rthumb 39.1132 -45.2572
lclavicle 2.47487e-014 -6.36111e-015
lhumerus -32.4083 7.04398 89.2561
lradius 40.3835
lwrist -5.09872
lhand -6.32422 13.6434
lfingers 7.12502
lthumb 19.5207 42.6835
rfemur -34.8859 4.54419 22.7733
rtibia 27.7913
rfoot -8.50507 -9.47353
rtoes -11.0273
lfemur 3.51614 -3.54997 -18.357
ltibia 6.61968
lfoot -25.8389 13.2917
ltoes -14.4346
102
root -31.4391 17.2662 13.2251 -146.097 79.6897 -153.744
lowerback -1.46721 -3.31555 5.62962
upperback 0.934826 -4.53418 -0.748623
thorax 1.28952 -2.20719 -4.0153
lowerneck -0.792934 1.99554 -2.83655
upperneck -4.35742 2.99588 6.93381
head -1.40108 1.48493 2.67413
rclavicle 1.80894e-014 2.3059e-014
rhumerus -30.579 -4.69805 -91.1073
rradius 33.5741
rwrist 26.5977
rhand 13.9092 -19.6017
rfingers 7.12502
rthumb 38.8239 -45.1719
lclavicle 1.80894e-014 2.3059e-014
lhumerus -32.0741 6.42262 89.5707
lradius 41.4738
lwrist -3.89985
lhand -5.99746 13.75
lfingers 7.12502
lthumb 19.8348 42.7579
rfemur -35.3038 4.50079 22.7268
rtibia 26.6652
rfoot -7.97869 -8.9049
rtoes -11.2355
lfemur 4.5727 -3.53562 -18.398
ltibia 5.25922
lfoot -25.5013 12.9696
ltoes -14.4618
103
root -31.3345 17.258 13.2195 -145.833 79.4476 -153.618
lowerback -1.43374 -3.3578 5.64106
upperback 0.845156 -4.58798 -0.593184
thorax 1.18405 -2.23956 -3.85587
lowerneck -0.770116 1.95684 -2.95139
upperneck -4.31854 2.94355 7.01539
head -1.39394 1.45943 2.72336
rclavicle 8.14023e-014 1.82882e-014
rhumerus -31.0074 -5.15323 -90.6105
rradius 33.2823
rwrist 26.8878
rhand 13.6532 -19.7405
rfingers 7.12502
rthumb 38.5825 -45.3789
lclavicle 8.14023e-014 1.82882e-014
lhumerus -31.8061 6.19444 89.8868
lradius 42.4486
lwrist -3.19722
lhand -6.68616 13.6002
lfingers 7.12502
lthumb 19.1726 42.6752
rfemur -35.8148 4.58649 22.7887
rtibia 25.5995
rfoot -7.87112 -8.54145
rtoes -10.7562
lfemur 5.79784 -3.63214 -18.1393
ltibia 3.13793
lfoot -24.6446 12.6634
ltoes -14.4403
104
root -31.2243 17.246 13.2132 -145.437 79.1144 -153.36
lowerback -1.57509 -3.3704 5.8296
upperback 0.829626 -4.61818 -0.511705
thorax 1.23632 -2.25167 -3.88587
lowerneck -0.813606 1.85457 -2.9006
upperneck -4.26742 2.80695 7.06621
head -1.36238 1.39168 2.73297
rclavicle -9.93923e-016 8.74653e-015
rhumerus -31.3806 -5.93789 -90.1283
rradius 32.9829
rwrist 27.3973
rhand 13.8551 -19.7958
rfingers 7.12502
rthumb 38.7729 -45.3805
lclavicle -9.93923e-016 8.74653e-015
lhumerus -31.3977 5.79798 90.1349
lradius 43.3198
lwrist -2.41124
lhand -6.37337 13.2438
lfingers 7.12502
lthumb 19.4734 42.2887
rfemur -36.3539 4.269 23.0953
rtibia 24.7328
rfoot -8.08575 -8.23175
rtoes -10.7709
lfemur 7.46227 -3.79446 -17.7412
ltibia -1.27222e-014
lfoot -23.1204 12.3202
ltoes -14.9773
105
root -31.1132 17.2356 13.2084 -145.447 78.8321 -153.437
lowerback -1.42478 -3.39253 5.9701
upperback 0.685862 -4.63698 -0.43235
thorax 0.997225 -2.27088 -3.86576
lowerneck -0.666566 1.74882 -3.0578
upperneck -4.17845 2.66639 7.30909
head -1.35997 1.31933 2.84504
rclavicle 2.0773e-014 -1.59028e-014
rhumerus -31.9762 -6.67412 -89.5848
rradius 32.6359
rwrist 27.8413
rhand 13.9828 -19.421
rfingers 7.12502
rthumb 38.8934 -44.9715
lclavicle 2.0773e-014 -1.59028e-014
lhumerus -31.3144 5.54946 90.2715
lradius 44.3941
lwrist -2.01771
lhand -6.74505 13.088
lfingers 7.12502
lthumb 19.116 42.1685
rfemur -36.7444 4.34344 23.1093
rtibia 23.8697
rfoot -8.36129 -8.25722
rtoes -11.8178
lfemur 7.7775 -3.94509 -17.5451
ltibia 5.08889e-014
lfoot -23.3991 12.2068
ltoes -14.9741
106
root -30.9886 17.2261 13.1949 -147.922 78.8771 -155.873
lowerback -1.55625 -3.35488 5.61936
upperback 0.702609 -4.58743 -0.638325
thorax 1.10359 -2.24535 -3.89272
lowerneck -0.311966 1.59957 -2.79505
upperneck -4.30379 2.47781 7.40499
head -1.4493 1.2124 2.82949
rclavicle 3.96575e-014 -1.27222e-014
rhumerus -32.5835 -7.54384 -89.1525
rradius 32.3493
rwrist 27.9719
rhand 13.9535 -19.5736
rfingers 7.12502
rthumb 38.8657 -45.132
lclavicle 3.96575e-014 -1.27222e-014
lhumerus -31.0411 5.06064 90.321
lradius 45.23
lwrist -1.47887
lhand -6.91186 12.5579
lfingers 7.12502
lthumb 18.9556 41.6542
rfemur -36.9562 3.9172 22.7104
rtibia 23.0989
rfoot -8.66821 -7.8431
rtoes -12.0557
lfemur 8.29885 -4.07378 -18.0445
ltibia -3.49861e-014
lfoot -23.6784 12.1632
ltoes -15.3695
